<svg xmlns="http://www.w3.org/2000/svg" width="576" height="466" viewBox="-34 -34 576 466" role="img" aria-label="Stamp Border plugin preview">
  <defs>
    <filter id="sh" x="-20%" y="-20%" width="140%" height="140%">
      <feDropShadow dx="0" dy="5" stdDeviation="9" flood-opacity="0.5"/>
    </filter>
    <mask id="perf">
      <rect width="508" height="398" fill="#fff"/>
      <g fill="#000"><circle cx="0" cy="0" r="11"/><circle cx="0" cy="398" r="11"/><circle cx="25.4" cy="0" r="11"/><circle cx="25.4" cy="398" r="11"/><circle cx="50.8" cy="0" r="11"/><circle cx="50.8" cy="398" r="11"/><circle cx="76.2" cy="0" r="11"/><circle cx="76.2" cy="398" r="11"/><circle cx="101.6" cy="0" r="11"/><circle cx="101.6" cy="398" r="11"/><circle cx="127" cy="0" r="11"/><circle cx="127" cy="398" r="11"/><circle cx="152.4" cy="0" r="11"/><circle cx="152.4" cy="398" r="11"/><circle cx="177.8" cy="0" r="11"/><circle cx="177.8" cy="398" r="11"/><circle cx="203.2" cy="0" r="11"/><circle cx="203.2" cy="398" r="11"/><circle cx="228.6" cy="0" r="11"/><circle cx="228.6" cy="398" r="11"/><circle cx="254" cy="0" r="11"/><circle cx="254" cy="398" r="11"/><circle cx="279.4" cy="0" r="11"/><circle cx="279.4" cy="398" r="11"/><circle cx="304.8" cy="0" r="11"/><circle cx="304.8" cy="398" r="11"/><circle cx="330.2" cy="0" r="11"/><circle cx="330.2" cy="398" r="11"/><circle cx="355.6" cy="0" r="11"/><circle cx="355.6" cy="398" r="11"/><circle cx="381" cy="0" r="11"/><circle cx="381" cy="398" r="11"/><circle cx="406.4" cy="0" r="11"/><circle cx="406.4" cy="398" r="11"/><circle cx="431.8" cy="0" r="11"/><circle cx="431.8" cy="398" r="11"/><circle cx="457.2" cy="0" r="11"/><circle cx="457.2" cy="398" r="11"/><circle cx="482.6" cy="0" r="11"/><circle cx="482.6" cy="398" r="11"/><circle cx="508" cy="0" r="11"/><circle cx="508" cy="398" r="11"/><circle cx="0" cy="26.53" r="11"/><circle cx="508" cy="26.53" r="11"/><circle cx="0" cy="53.07" r="11"/><circle cx="508" cy="53.07" r="11"/><circle cx="0" cy="79.6" r="11"/><circle cx="508" cy="79.6" r="11"/><circle cx="0" cy="106.13" r="11"/><circle cx="508" cy="106.13" r="11"/><circle cx="0" cy="132.67" r="11"/><circle cx="508" cy="132.67" r="11"/><circle cx="0" cy="159.2" r="11"/><circle cx="508" cy="159.2" r="11"/><circle cx="0" cy="185.73" r="11"/><circle cx="508" cy="185.73" r="11"/><circle cx="0" cy="212.27" r="11"/><circle cx="508" cy="212.27" r="11"/><circle cx="0" cy="238.8" r="11"/><circle cx="508" cy="238.8" r="11"/><circle cx="0" cy="265.33" r="11"/><circle cx="508" cy="265.33" r="11"/><circle cx="0" cy="291.87" r="11"/><circle cx="508" cy="291.87" r="11"/><circle cx="0" cy="318.4" r="11"/><circle cx="508" cy="318.4" r="11"/><circle cx="0" cy="344.93" r="11"/><circle cx="508" cy="344.93" r="11"/><circle cx="0" cy="371.47" r="11"/><circle cx="508" cy="371.47" r="11"/></g>
    </mask>
  </defs>
  <rect x="-34" y="-34" width="576" height="466" fill="#0d0d0d"/>
  <rect width="508" height="398" fill="#ffffff" mask="url(#perf)" filter="url(#sh)"/>

    <rect x="34" y="34" width="440" height="330" fill="#e9e3d5"/>
    <g fill="#141414">
      <path d="M154 244 L154 104 L214 174 L244 94 L284 184 L354 154 L334 244 Z"/>
      <circle cx="202" cy="202" r="13" fill="#8a6a3d"/>
      <path d="M152 266 h190 l-52 52 h-86 Z" fill="#8a6a3d"/>
    </g>
    <g fill="#141414" font-family="Georgia, serif">
      <text x="62" y="80" font-size="30" font-weight="bold">Stamp Border</text>
      <text x="62" y="340" font-size="34" font-weight="bold">76&#162;</text>
      <text x="446" y="340" font-size="17" text-anchor="end">figma plugin</text>
    </g>
</svg>
